<?xml version="1.0" encoding="UTF-8"?>
<svg id="a" data-name="Layer 1" xmlns="http://www.w3.org/2000/svg" xmlns:xlink="http://www.w3.org/1999/xlink" viewBox="0 0 16 16">
  <defs>
    <style>
      .c {
        fill: url(#b);
        stroke-width: 0px;
      }
    </style>
    <linearGradient id="b" x1="1.34" y1="9" x2="14.66" y2="9" gradientTransform="translate(0 17) scale(1 -1)" gradientUnits="userSpaceOnUse">
      <stop offset="0" stop-color="#5433ff"/>
      <stop offset=".5" stop-color="#20bdff"/>
      <stop offset="1" stop-color="#a5fecb"/>
    </linearGradient>
  </defs>
  <path class="c" d="m4.61,15.89l-.06.11h6.91l-.06-.11,3.13-4.36h.14L8,0,1.34,11.53h.14l3.13,4.36h0Zm-2.84-4.36h5.36l-2.39,4.14s-2.97-4.14-2.97-4.14Zm3.18,4.24l2.45-4.24h1.22l2.45,4.24h-6.12Zm.75-8.98c0-1.24,1-2.24,2.24-2.24s2.24,1,2.24,2.24c0,.1,0,.2-.02.3-.23-.17-.48-.34-.75-.47-.09-.73-.71-1.3-1.47-1.3s-1.38.57-1.47,1.3c-.28.14-.53.3-.75.47-.01-.1-.02-.2-.02-.3Zm3.49,0c0,.69-.56,1.25-1.25,1.25s-1.25-.56-1.25-1.25v-.03c.38-.18.81-.3,1.25-.3s.86.12,1.25.3v.03h0Zm-1.25-.56c-.43,0-.84.1-1.21.26.13-.55.63-.95,1.21-.95s1.08.41,1.21.95c-.37-.16-.78-.26-1.21-.26Zm-1.47.64c.05.77.69,1.39,1.47,1.39s1.43-.62,1.47-1.39c.25.14.49.3.7.47-.25.97-1.13,1.69-2.17,1.69s-1.92-.72-2.17-1.69c.21-.16.44-.33.7-.47h0Zm1.47,2.38c1.11,0,2.06-.74,2.36-1.76.36.31.62.6.73.73-.28.34-1.57,1.77-3.09,1.77s-2.81-1.44-3.09-1.77c.11-.13.37-.42.73-.73.31,1.01,1.25,1.76,2.36,1.76Zm.07,1.21l.48.83h-.96s.48-.83.48-.83Zm3.27,5.2l-2.39-4.14h5.36l-2.97,4.14ZM8,.46l6.26,10.85h-5.52l-.62-1.07c1.73-.12,3.08-1.85,3.14-1.92l.05-.07-.05-.07s-.37-.47-.91-.92c.03-.15.04-.3.04-.46,0-1.36-1.11-2.47-2.47-2.47s-2.47,1.11-2.47,2.47c0,.16.02.31.04.46-.54.45-.88.88-.91.92l-.05.07.05.07c.06.08,1.48,1.89,3.27,1.93l-.62,1.07H1.74L8,.46Z"/>
</svg>