<?xml version="1.0" encoding="utf-8"?>
<!-- Generator: Adobe Illustrator 27.8.1, SVG Export Plug-In . SVG Version: 6.00 Build 0)  -->
<svg version="1.1" id="Layer_1" xmlns="http://www.w3.org/2000/svg" xmlns:xlink="http://www.w3.org/1999/xlink" x="0px" y="0px"
	 viewBox="0 0 24 24" style="enable-background:new 0 0 24 24;" xml:space="preserve">
<style type="text/css">
	.st0{fill:url(#SVGID_1_);fill-opacity:0.1;}
	.st1{fill:url(#SVGID_00000128450558569238457130000003499142560433158830_);}
</style>
<linearGradient id="SVGID_1_" gradientUnits="userSpaceOnUse" x1="24" y1="24" x2="-1.075866e-06" y2="-1.433496e-06" gradientTransform="matrix(1 0 0 -1 0 24)">
	<stop  offset="0" style="stop-color:#0CF3A8"/>
	<stop  offset="1" style="stop-color:#D02BFA"/>
</linearGradient>
<path class="st0" d="M12,0L12,0c6.6,0,12,5.4,12,12l0,0c0,6.6-5.4,12-12,12l0,0C5.4,24,0,18.6,0,12l0,0C0,5.4,5.4,0,12,0z"/>
<linearGradient id="SVGID_00000010298412172628442730000011056877745187536828_" gradientUnits="userSpaceOnUse" x1="5.335" y1="11" x2="18.665" y2="11" gradientTransform="matrix(1 0 0 1 0 1)">
	<stop  offset="0" style="stop-color:#5433FF"/>
	<stop  offset="0.5" style="stop-color:#20BDFF"/>
	<stop  offset="1" style="stop-color:#A5FECB"/>
</linearGradient>
<path style="fill:url(#SVGID_00000010298412172628442730000011056877745187536828_);" d="M8.6,19.9L8.5,20h6.9l-0.1-0.1l3.1-4.4h0.1
	L12,4L5.3,15.5h0.1L8.6,19.9C8.6,19.9,8.6,19.9,8.6,19.9z M5.8,15.5h5.4l-2.4,4.1C8.7,19.7,5.8,15.5,5.8,15.5z M8.9,19.8l2.4-4.2
	h1.2l2.4,4.2C15.1,19.8,8.9,19.8,8.9,19.8z M9.7,10.8c0-1.2,1-2.2,2.2-2.2s2.2,1,2.2,2.2c0,0.1,0,0.2,0,0.3
	c-0.2-0.2-0.5-0.3-0.8-0.5c-0.1-0.7-0.7-1.3-1.5-1.3s-1.4,0.6-1.5,1.3c-0.3,0.1-0.5,0.3-0.8,0.5C9.7,11,9.7,10.9,9.7,10.8z
	 M13.2,10.8c0,0.7-0.6,1.2-1.2,1.2s-1.2-0.6-1.2-1.2v0c0.4-0.2,0.8-0.3,1.2-0.3C12.4,10.5,12.8,10.6,13.2,10.8L13.2,10.8L13.2,10.8z
	 M11.9,10.2c-0.4,0-0.8,0.1-1.2,0.3c0.1-0.6,0.6-0.9,1.2-0.9s1.1,0.4,1.2,0.9C12.8,10.3,12.4,10.2,11.9,10.2z M10.5,10.9
	c0.1,0.8,0.7,1.4,1.5,1.4c0.8,0,1.4-0.6,1.5-1.4c0.2,0.1,0.5,0.3,0.7,0.5c-0.2,1-1.1,1.7-2.2,1.7s-1.9-0.7-2.2-1.7
	C10,11.2,10.2,11,10.5,10.9L10.5,10.9z M11.9,13.3c1.1,0,2.1-0.7,2.4-1.8c0.4,0.3,0.6,0.6,0.7,0.7c-0.3,0.3-1.6,1.8-3.1,1.8
	s-2.8-1.4-3.1-1.8c0.1-0.1,0.4-0.4,0.7-0.7C9.9,12.5,10.8,13.3,11.9,13.3z M12,14.5l0.5,0.8h-1C11.5,15.3,12,14.5,12,14.5z
	 M15.3,19.7l-2.4-4.1h5.4C18.2,15.5,15.3,19.7,15.3,19.7z M12,4.5l6.3,10.9h-5.5l-0.6-1.1c1.7-0.1,3.1-1.9,3.1-1.9l0.1-0.1l-0.1-0.1
	c0,0-0.4-0.5-0.9-0.9c0-0.2,0-0.3,0-0.5c0-1.4-1.1-2.5-2.5-2.5s-2.5,1.1-2.5,2.5c0,0.2,0,0.3,0,0.5c-0.5,0.4-0.9,0.9-0.9,0.9
	l-0.1,0.1l0.1,0.1c0.1,0.1,1.5,1.9,3.3,1.9l-0.6,1.1H5.7L12,4.5z"/>
</svg>
