<svg width="68" height="68" viewBox="0 0 68 68" fill="none" xmlns="http://www.w3.org/2000/svg">
<g clip-path="url(#clip0_6_229)">
<mask id="mask0_6_229" style="mask-type:luminance" maskUnits="userSpaceOnUse" x="0" y="0" width="68" height="68">
<path d="M68 0H0V68H68V0Z" fill="white"/>
</mask>
<g mask="url(#mask0_6_229)">
<path opacity="0.0714286" d="M61.6847 21.2518L59.1557 54.4358C59.0142 56.2918 57.6213 57.8102 55.7849 58.1102L25.277 63.0946C23.5974 63.369 21.9268 62.5588 21.1019 61.07L4.27946 30.7064C3.4546 29.2176 3.65324 27.3707 4.77587 26.0911L25.1674 2.84738C26.3949 1.44818 28.42 1.07096 30.0682 1.9345L59.536 17.3735C60.9623 18.1208 61.8071 19.6456 61.6847 21.2518Z" stroke="url(#paint0_linear_6_229)" stroke-width="0.424436"/>
<path opacity="0.142857" d="M64.3947 32.7929L49.107 62.3504C48.2519 64.0038 46.3762 64.8571 44.5682 64.4152L14.5399 57.0773C12.8866 56.6733 11.6652 55.2747 11.4873 53.582L7.86019 19.0547C7.68237 17.3621 8.58649 15.74 10.1197 15.0009L37.9669 1.57692C39.6436 0.768639 41.6556 1.21309 42.8357 2.65244L63.9315 28.3841C64.9524 29.6292 65.1345 31.3625 64.3947 32.7929Z" stroke="url(#paint1_linear_6_229)" stroke-width="0.424436"/>
<path opacity="0.214286" d="M62.3884 44.4798L36.7728 65.7113C35.34 66.8989 33.2804 66.9511 31.7887 65.8377L7.01302 47.344C5.64899 46.3258 5.07086 44.5608 5.56825 42.9331L15.7135 9.733C16.2109 8.10531 17.6767 6.96549 19.3766 6.88453L50.2529 5.41389C52.1119 5.32535 53.7902 6.52094 54.3143 8.30711L63.684 40.24C64.1375 41.7854 63.6281 43.4523 62.3884 44.4798Z" stroke="url(#paint2_linear_6_229)" stroke-width="0.424436"/>
<path opacity="0.285714" d="M55.9779 54.4484L24.1073 63.9782C22.3249 64.5112 20.4092 63.7545 19.4713 62.147L3.88687 35.4369C3.02893 33.9664 3.18628 32.1155 4.28008 30.8113L26.5837 4.21769C27.6775 2.9135 29.4721 2.43705 31.0685 3.02704L60.0659 13.7441C61.8111 14.3892 62.8885 16.1452 62.6734 17.994L58.8273 51.0508C58.6412 52.6512 57.5208 53.9871 55.9779 54.4484Z" stroke="url(#paint3_linear_6_229)" stroke-width="0.424436"/>
<path opacity="0.357143" d="M46.1706 61.1174L13.1123 57.4306C11.2637 57.2245 9.79638 55.7798 9.56089 53.9341L5.64647 23.2535C5.431 21.5646 6.29906 19.9221 7.81569 19.1489L38.7303 3.38931C40.247 2.61617 42.0854 2.87899 43.3243 4.04608L65.8323 25.2481C67.1864 26.5236 67.492 28.5604 66.5722 30.1779L50.1222 59.1029C49.3255 60.5038 47.7716 61.2959 46.1706 61.1174Z" stroke="url(#paint4_linear_6_229)" stroke-width="0.424436"/>
<path opacity="0.428571" d="M34.5463 63.4218L5.55613 47.1049C3.93513 46.1926 3.14872 44.2896 3.65266 42.499L12.0315 12.7262C12.4927 11.0874 13.9335 9.91482 15.6317 9.796L50.2425 7.37458C51.9408 7.25577 53.5306 8.21637 54.2153 9.775L66.6541 38.0913C67.4023 39.7944 66.8882 41.7883 65.4099 42.9175L38.9716 63.1122C37.6908 64.0905 35.9507 64.2122 34.5463 63.4218Z" stroke="url(#paint5_linear_6_229)" stroke-width="0.424436"/>
<path opacity="0.5" d="M22.9371 61.0022L2.62379 34.6493C1.48791 33.1757 1.50723 31.1164 2.67055 29.6649L22.0104 5.53484C23.075 4.2066 24.859 3.69038 26.4686 4.24487L59.2741 15.5463C60.8836 16.1008 61.9718 17.6065 61.9934 19.3089L62.3848 50.2365C62.4084 52.0968 61.1564 53.7315 59.3545 54.193L27.131 62.447C25.5702 62.8468 23.921 62.2786 22.9371 61.0022Z" stroke="url(#paint6_linear_6_229)" stroke-width="0.424436"/>
<path opacity="0.571429" d="M13.2109 54.24L4.80401 22.0406C4.33385 20.2398 5.15634 18.3511 6.79459 17.4695L34.0195 2.81873C35.5182 2.01221 37.3618 2.23423 38.6265 3.37355L64.4118 26.6023C65.6765 27.7416 66.0899 29.5527 65.4448 31.1283L53.7274 59.749C53.0223 61.4712 51.2308 62.4871 49.3917 62.2075L16.5058 57.2082C14.9135 56.9661 13.618 55.799 13.2109 54.24Z" stroke="url(#paint7_linear_6_229)" stroke-width="0.424436"/>
<path opacity="0.642857" d="M6.88561 44.2103L11.7222 11.2836C11.9927 9.44193 13.4882 8.02441 15.3412 7.85326L46.122 5.01025C47.8166 4.85373 49.4267 5.77844 50.1457 7.32114L64.8103 38.7851C65.5293 40.3278 65.2024 42.1562 63.9933 43.3544L42.031 65.1182C40.7088 66.4284 38.6622 66.6634 37.0782 65.6869L8.75855 48.2289C7.38788 47.3839 6.65152 45.804 6.88561 44.2103Z" stroke="url(#paint8_linear_6_229)" stroke-width="0.424436"/>
<path opacity="0.714286" d="M4.98949 32.5075L22.3007 4.08885C23.2691 2.4992 25.1997 1.77892 26.9725 2.34586L56.416 11.7616C58.0371 12.28 59.1581 13.7605 59.2174 15.4614L60.4285 50.1578C60.4878 51.8587 59.4728 53.4138 57.8918 54.044L29.1765 65.4918C27.4475 66.1811 25.4714 65.5973 24.3946 64.0791L5.14412 36.9378C4.21257 35.6245 4.15178 33.8827 4.98949 32.5075Z" stroke="url(#paint9_linear_6_229)" stroke-width="0.424436"/>
<path opacity="0.785714" d="M7.81488 20.9917L34.8484 1.59966C36.3605 0.514975 38.4186 0.606598 39.829 1.82138L63.255 21.9992C64.5447 23.1101 64.9984 24.9112 64.3887 26.5003L51.9535 58.9113C51.3438 60.5004 49.8021 61.5351 48.1007 61.4973L17.1969 60.8094C15.3363 60.768 13.7455 59.4582 13.3473 57.6399L6.22677 25.1309C5.88216 23.5575 6.50652 21.9302 7.81488 20.9917Z" stroke="url(#paint10_linear_6_229)" stroke-width="0.424436"/>
<path opacity="0.857143" d="M14.9067 11.4944L47.364 4.21217C49.1792 3.8049 51.0373 4.69331 51.8608 6.36226L65.5451 34.0952C66.2984 35.6219 66.0123 37.4575 64.8302 38.6822L40.727 63.6542C39.5449 64.8789 37.7214 65.229 36.1701 64.529L7.99024 51.8142C6.29439 51.049 5.34212 49.2221 5.68559 47.3929L11.827 14.6851C12.1244 13.1015 13.3353 11.847 14.9067 11.4944Z" stroke="url(#paint11_linear_6_229)" stroke-width="0.424436"/>
<path opacity="0.928571" d="M25.1511 5.52689L57.8716 11.5118C59.7013 11.8465 61.0643 13.3899 61.1705 15.2474L62.9363 46.1268C63.0335 47.8265 62.053 49.4045 60.4861 50.07L28.5482 63.6335C26.9813 64.299 25.1657 63.9085 24.0111 62.6578L3.03601 39.9363C1.77427 38.5696 1.61139 36.5165 2.64178 34.9672L21.0684 7.26077C21.9608 5.91882 23.5663 5.23701 25.1511 5.52689Z" stroke="url(#paint12_linear_6_229)" stroke-width="0.424436"/>
<path d="M36.9083 4.03648L64.6902 22.3368C66.2437 23.3601 66.8955 25.3133 66.2679 27.0644L55.8336 56.1799C55.2593 57.7825 53.7403 58.8517 52.0379 58.8517H17.3426C15.6402 58.8517 14.1212 57.7825 13.5468 56.1799L3.1125 27.0644C2.48494 25.3133 3.13676 23.3601 4.69019 22.3368L32.4722 4.03648C33.818 3.14996 35.5625 3.14996 36.9083 4.03648Z" stroke="url(#paint13_linear_6_229)" stroke-width="0.424436"/>
<path d="M51.7668 17.6802L39.2501 10.4537C36.0014 8.57809 31.9988 8.57809 28.7501 10.4537L16.2334 17.6802C12.9847 19.5559 10.9834 23.0222 10.9834 26.7735V41.2265C10.9834 44.9778 12.9847 48.4441 16.2334 50.3198L28.7501 57.5463C31.9988 59.4219 36.0014 59.4219 39.2501 57.5463L51.7668 50.3198C55.0155 48.4441 57.0168 44.9778 57.0168 41.2265V26.7735C57.0168 23.0222 55.0155 19.5559 51.7668 17.6802Z" fill="black" stroke="url(#paint14_linear_6_229)"/>
<g opacity="0.25">
<path d="M29.6479 45.4039C29.5248 45.2952 29.4478 45.1437 29.4324 44.9803L28.209 31.9645H32.563V46.5462C32.563 47.1024 31.9069 47.3983 31.49 47.0303L29.6479 45.4039Z" fill="black"/>
<path d="M32.563 31.7062V29.8893L27.9766 29.493L28.1847 31.7062H32.563Z" fill="black"/>
<path d="M32.563 29.63L27.9521 29.2316L27.2314 21.5645C27.1958 21.1857 27.4938 20.8584 27.8743 20.8584H31.9173C32.274 20.8584 32.563 21.1475 32.563 21.5041V29.63Z" fill="black"/>
<path d="M41.0732 31.7062H44.3922C44.5705 31.7062 44.7151 31.5616 44.7151 31.3833V29.4793C44.7151 29.2886 44.5507 29.1394 44.3609 29.158L41.2788 29.4589L41.0732 31.7062Z" fill="black"/>
<path d="M41.0171 29.4845L36.4243 29.9329V31.7062H40.8138L41.0171 29.4845Z" fill="black"/>
<path d="M36.166 29.9582V31.7062H23.9365C23.7581 31.7062 23.6136 31.5616 23.6136 31.3833V29.475C23.6136 29.2859 23.7755 29.1372 23.964 29.1533L34.8328 30.0829C34.8524 30.0846 34.8722 30.0845 34.8917 30.0826L36.166 29.9582Z" fill="black"/>
<path d="M37.5297 46.9864C37.1242 47.3974 36.4243 47.1103 36.4243 46.5329V26.5019H41.2962L39.6014 44.6785C39.5875 44.8269 39.5228 44.9659 39.4181 45.072L37.5297 46.9864Z" fill="black"/>
<path d="M41.3203 26.2436H36.4243V23.4597L41.61 23.1362L41.3203 26.2436Z" fill="black"/>
<path d="M36.4243 21.5042V23.2009L41.6343 22.8759L41.7566 21.5641C41.7919 21.1855 41.494 20.8585 41.1137 20.8585H37.07C36.7134 20.8585 36.4243 21.1476 36.4243 21.5042Z" fill="black"/>
<path d="M32.5631 26.2436V23.4678L27.3838 23.2129L27.6672 26.2436H32.5631Z" fill="black"/>
<path d="M32.8213 26.2436H45.8774C46.02 26.2436 46.1356 26.128 46.1356 25.9853V23.116C46.1356 22.9669 46.0098 22.8488 45.861 22.8582L34.6487 23.5704L32.8213 23.4805V26.2436Z" fill="black"/>
<path d="M27.1019 23.199L27.4113 26.2436H22.1803C22.0376 26.2436 21.922 26.128 21.922 25.9853V23.2154C21.922 23.0678 22.0455 22.9502 22.1929 22.9574L27.1019 23.199Z" fill="black"/>
</g>
<path d="M29.5932 45.3521C29.4701 45.2435 29.3931 45.092 29.3777 44.9285L28.1543 31.9127H32.5084V46.4945C32.5084 47.0506 31.8522 47.3466 31.4353 46.9785L29.5932 45.3521Z" fill="url(#paint15_linear_6_229)"/>
<path d="M32.5084 31.6545V29.8375L27.922 29.4412L28.13 31.6545H32.5084Z" fill="url(#paint16_linear_6_229)"/>
<path d="M32.5083 29.5783L27.8973 29.1799L27.1766 21.5128C27.141 21.134 27.439 20.8066 27.8195 20.8066H31.8626C32.2192 20.8066 32.5083 21.0957 32.5083 21.4523V29.5783Z" fill="url(#paint17_linear_6_229)"/>
<path d="M41.0184 31.6544H44.3375C44.5158 31.6544 44.6603 31.5099 44.6603 31.3316V29.4275C44.6603 29.2368 44.4959 29.0877 44.3061 29.1062L41.224 29.4072L41.0184 31.6544Z" fill="url(#paint18_linear_6_229)"/>
<path d="M40.9623 29.4327L36.3696 29.8812V31.6544H40.759L40.9623 29.4327Z" fill="url(#paint19_linear_6_229)"/>
<path d="M36.1114 29.9064V31.6544H23.8819C23.7036 31.6544 23.559 31.5099 23.559 31.3316V29.4233C23.559 29.2341 23.7209 29.0855 23.9094 29.1016L34.7783 30.0312C34.7979 30.0329 34.8176 30.0327 34.8371 30.0308L36.1114 29.9064Z" fill="url(#paint20_linear_6_229)"/>
<path d="M37.4749 46.9346C37.0695 47.3457 36.3696 47.0585 36.3696 46.4812V26.4501H41.2414L39.5466 44.6268C39.5328 44.7752 39.468 44.9142 39.3634 45.0203L37.4749 46.9346Z" fill="url(#paint21_linear_6_229)"/>
<path d="M41.2655 26.1918H36.3696V23.4079L41.5552 23.0844L41.2655 26.1918Z" fill="url(#paint22_linear_6_229)"/>
<path d="M36.3696 21.4524V23.1491L41.5795 22.8241L41.7018 21.5124C41.7371 21.1337 41.4392 20.8067 41.0589 20.8067H37.0152C36.6586 20.8067 36.3696 21.0958 36.3696 21.4524Z" fill="url(#paint23_linear_6_229)"/>
<path d="M32.5084 26.1919V23.416L27.3291 23.1611L27.6125 26.1919H32.5084Z" fill="url(#paint24_linear_6_229)"/>
<path d="M32.7666 26.1919H45.8226C45.9652 26.1919 46.0808 26.0762 46.0808 25.9336V23.0642C46.0808 22.9152 45.955 22.797 45.8062 22.8065L34.5939 23.5187L32.7666 23.4287V26.1919Z" fill="url(#paint25_linear_6_229)"/>
<path d="M27.0472 23.1473L27.3565 26.1919H22.1255C21.9828 26.1919 21.8672 26.0762 21.8672 25.9336V23.1636C21.8672 23.016 21.9907 22.8984 22.1382 22.9057L27.0472 23.1473Z" fill="url(#paint26_linear_6_229)"/>
<path d="M28.1338 29.2003L27.8973 29.1799L27.6164 26.1919H27.6124L27.329 23.1611L27.3316 23.1613L27.1766 21.5128C27.141 21.134 27.439 20.8066 27.8195 20.8066H31.8626C32.1074 20.8066 32.3204 20.9429 32.4299 21.1438C32.3383 21.0939 32.2332 21.0655 32.1215 21.0655H28.0784C27.6979 21.0655 27.3999 21.3928 27.4356 21.7716L27.5905 23.4201L27.588 23.42L27.8714 26.4507H27.8754L28.1338 29.2003Z" fill="white"/>
<path d="M32.7672 26.1919H33.0255V23.6876L34.8528 23.7775L46.0651 23.0654C46.0704 23.065 46.0756 23.0648 46.0808 23.0648C46.0808 22.9158 45.955 22.797 45.8062 22.8065L41.8407 23.0584L41.8384 23.083L36.6285 23.408V23.3894L34.5939 23.5187L32.7672 23.4288V26.1919Z" fill="white"/>
<path d="M41.6262 21.1438C41.5348 21.094 41.4299 21.0656 41.3178 21.0656H37.2742C36.9176 21.0656 36.6285 21.3547 36.6285 21.7113V23.133L36.3696 23.1491V21.4524C36.3696 21.0958 36.6586 20.8067 37.0153 20.8067H41.0589C41.3053 20.8067 41.5172 20.9441 41.6262 21.1438Z" fill="white"/>
<path d="M36.3696 26.4507H41.2413L41.2173 26.709H36.6285V46.74C36.6285 46.8549 36.6562 46.9582 36.7038 47.0469C36.5111 46.9418 36.3696 46.7408 36.3696 46.4812V31.9133L36.3702 30.1653L36.3696 26.4507Z" fill="white"/>
<path d="M36.1114 30.1906V29.9064L34.8371 30.0308C34.8176 30.0327 34.7979 30.0329 34.7783 30.0312L27.922 29.4412L27.9223 29.4448L23.9094 29.1016C23.7209 29.0855 23.559 29.2341 23.559 29.4233V31.3316C23.559 31.4899 23.6729 31.6216 23.8233 31.6491C23.8198 31.6301 23.818 31.6105 23.818 31.5904V29.6821C23.818 29.493 23.9799 29.3443 24.1683 29.3605L28.1812 29.7037L28.1809 29.7001L35.0372 30.2901C35.0568 30.2917 35.0765 30.2916 35.0961 30.2897L36.1114 30.1906Z" fill="white"/>
<path d="M28.1543 31.9133L29.3777 44.9285C29.3931 45.092 29.4701 45.2435 29.5932 45.3521L29.74 45.4818C29.6825 45.3943 29.6466 45.2933 29.6367 45.1874L28.4132 32.1716H32.5084V31.9133H28.1543Z" fill="white"/>
<path d="M41.0417 31.6544H41.301L41.4831 29.666L44.565 29.3651C44.5959 29.3621 44.6261 29.3635 44.655 29.3688C44.6254 29.2073 44.4759 29.0896 44.3061 29.1062L41.2491 29.4047L41.1697 30.2566L41.0417 31.6544Z" fill="white"/>
<path d="M27.0723 23.3946L27.0472 23.1473L22.1382 22.9057C21.9907 22.8984 21.8672 23.016 21.8672 23.1636V25.9336C21.8672 26.0762 21.9828 26.1919 22.1255 26.1919L22.1261 23.4225C22.1261 23.2749 22.2497 23.1573 22.3971 23.1646L27.0723 23.3946Z" fill="white"/>
</g>
<rect x="17.9702" y="17.9702" width="32.0596" height="32.0596" fill="black"/>
<path d="M26.4117 50.3717L26.2727 50.6137H41.799L41.66 50.3717L48.6804 40.5791H48.9943L34.0359 14.6732L19.0798 40.5791H19.3937L26.4141 50.3717H26.4117ZM20.0239 40.5791H32.0663L26.6944 49.8853L20.0239 40.5791ZM27.1616 50.1009L32.6581 40.5791H35.4088L40.9053 50.1009H27.1592H27.1616ZM28.8508 29.9263C28.8508 27.1517 31.1079 24.8947 33.8825 24.8947C36.6571 24.8947 38.9142 27.1517 38.9142 29.9263C38.9142 30.1516 38.8974 30.3744 38.8686 30.5948C38.3631 30.2115 37.7928 29.8425 37.1747 29.5286C36.9758 27.8873 35.5765 26.6078 33.8825 26.6078C32.1885 26.6078 30.7868 27.8849 30.5904 29.5286C29.9722 29.8401 29.4019 30.2115 28.8964 30.5948C28.8676 30.3768 28.8508 30.154 28.8508 29.9263ZM36.6859 29.9263C36.6859 31.4718 35.4279 32.7321 33.8801 32.7321C32.3323 32.7321 31.0744 31.4742 31.0744 29.9263C31.0744 29.9072 31.0768 29.888 31.0768 29.8688C31.9393 29.4639 32.8858 29.1908 33.8777 29.1908C34.8697 29.1908 35.8161 29.4639 36.6787 29.8688C36.6787 29.888 36.6811 29.9072 36.6811 29.9263H36.6859ZM33.8801 28.678C32.9145 28.678 31.9992 28.9104 31.1582 29.265C31.4577 28.0383 32.5623 27.123 33.8801 27.123C35.1979 27.123 36.3049 28.0383 36.602 29.265C35.761 28.9104 34.8433 28.678 33.8801 28.678ZM30.5712 30.1276C30.6742 31.8647 32.1166 33.2472 33.8801 33.2472C35.6436 33.2472 37.0836 31.8647 37.189 30.13C37.7617 30.4439 38.2888 30.8081 38.756 31.1747C38.2002 33.3479 36.2258 34.9604 33.8801 34.9604C31.5344 34.9604 29.5601 33.3479 29.0042 31.1747C29.4714 30.8057 29.9985 30.4439 30.5712 30.13V30.1276ZM33.8801 35.4732C36.3816 35.4732 38.4997 33.8079 39.1873 31.5293C40.002 32.2265 40.5842 32.883 40.8262 33.1754C40.1937 33.9301 37.2945 37.1576 33.8777 37.1576C30.461 37.1576 27.5618 33.9301 26.9292 33.1754C27.1736 32.8854 27.7535 32.2265 28.5681 31.5293C29.2558 33.8079 31.3763 35.4732 33.8777 35.4732H33.8801ZM34.0335 38.1998L35.1117 40.0687H32.9528L34.0311 38.1998H34.0335ZM41.3749 49.8877L36.003 40.5815H48.0454L41.3749 49.8877ZM34.0359 15.7011L48.1029 40.0639H35.7083L34.3138 37.6511C38.2073 37.3756 41.2335 33.4988 41.3653 33.3287L41.4851 33.173L41.3653 33.0172C41.3006 32.9334 40.5435 31.963 39.3287 30.959C39.391 30.6236 39.4269 30.2786 39.4269 29.9263C39.4269 26.869 36.9398 24.3819 33.8825 24.3819C30.8252 24.3819 28.3381 26.869 28.3381 29.9263C28.3381 30.2786 28.3716 30.6236 28.4363 30.959C27.2239 31.9606 26.4644 32.9334 26.3997 33.0172L26.2799 33.173L26.3997 33.3287C26.5339 33.5036 29.7134 37.5769 33.7507 37.6631L32.3634 40.0639H19.9688L34.0359 15.7011Z" fill="url(#paint27_linear_6_229)"/>
</g>
<defs>
<linearGradient id="paint0_linear_6_229" x1="24.845" y1="16.0556" x2="44.8112" y2="52.0576" gradientUnits="userSpaceOnUse">
<stop offset="0.166667" stop-color="#876CF5" stop-opacity="0"/>
<stop offset="0.520833" stop-color="#1FDBFA" stop-opacity="0.6"/>
<stop offset="1" stop-color="#876CF5" stop-opacity="0.36"/>
</linearGradient>
<linearGradient id="paint1_linear_6_229" x1="32.5126" y1="13.6088" x2="36.8184" y2="54.5555" gradientUnits="userSpaceOnUse">
<stop offset="0.166667" stop-color="#876CF5" stop-opacity="0"/>
<stop offset="0.520833" stop-color="#1FDBFA" stop-opacity="0.6"/>
<stop offset="1" stop-color="#876CF5" stop-opacity="0.36"/>
</linearGradient>
<linearGradient id="paint2_linear_6_229" x1="40.533" y1="14.3571" x2="28.4903" y2="53.7273" gradientUnits="userSpaceOnUse">
<stop offset="0.166667" stop-color="#876CF5" stop-opacity="0"/>
<stop offset="0.520833" stop-color="#1FDBFA" stop-opacity="0.6"/>
<stop offset="1" stop-color="#876CF5" stop-opacity="0.36"/>
</linearGradient>
<linearGradient id="paint3_linear_6_229" x1="47.6249" y1="18.1762" x2="21.1573" y2="49.7033" gradientUnits="userSpaceOnUse">
<stop offset="0.166667" stop-color="#876CF5" stop-opacity="0"/>
<stop offset="0.520833" stop-color="#1FDBFA" stop-opacity="0.6"/>
<stop offset="1" stop-color="#876CF5" stop-opacity="0.36"/>
</linearGradient>
<linearGradient id="paint4_linear_6_229" x1="52.6484" y1="24.4633" x2="15.9741" y2="43.1405" gradientUnits="userSpaceOnUse">
<stop offset="0.166667" stop-color="#876CF5" stop-opacity="0"/>
<stop offset="0.520833" stop-color="#1FDBFA" stop-opacity="0.6"/>
<stop offset="1" stop-color="#876CF5" stop-opacity="0.36"/>
</linearGradient>
<linearGradient id="paint5_linear_6_229" x1="54.8245" y1="32.2142" x2="13.7724" y2="35.0834" gradientUnits="userSpaceOnUse">
<stop offset="0.166667" stop-color="#876CF5" stop-opacity="0"/>
<stop offset="0.520833" stop-color="#1FDBFA" stop-opacity="0.6"/>
<stop offset="1" stop-color="#876CF5" stop-opacity="0.36"/>
</linearGradient>
<linearGradient id="paint6_linear_6_229" x1="53.7908" y1="40.2025" x2="14.8766" y2="26.8099" gradientUnits="userSpaceOnUse">
<stop offset="0.166667" stop-color="#876CF5" stop-opacity="0"/>
<stop offset="0.520833" stop-color="#1FDBFA" stop-opacity="0.6"/>
<stop offset="1" stop-color="#876CF5" stop-opacity="0.36"/>
</linearGradient>
<linearGradient id="paint7_linear_6_229" x1="49.7346" y1="47.1542" x2="19.139" y2="19.6195" gradientUnits="userSpaceOnUse">
<stop offset="0.166667" stop-color="#876CF5" stop-opacity="0"/>
<stop offset="0.520833" stop-color="#1FDBFA" stop-opacity="0.6"/>
<stop offset="1" stop-color="#876CF5" stop-opacity="0.36"/>
</linearGradient>
<linearGradient id="paint8_linear_6_229" x1="43.2733" y1="51.9648" x2="25.8674" y2="14.6563" gradientUnits="userSpaceOnUse">
<stop offset="0.166667" stop-color="#876CF5" stop-opacity="0"/>
<stop offset="0.520833" stop-color="#1FDBFA" stop-opacity="0.6"/>
<stop offset="1" stop-color="#876CF5" stop-opacity="0.36"/>
</linearGradient>
<linearGradient id="paint9_linear_6_229" x1="35.4564" y1="53.8699" x2="34.0188" y2="12.7224" gradientUnits="userSpaceOnUse">
<stop offset="0.166667" stop-color="#876CF5" stop-opacity="0"/>
<stop offset="0.520833" stop-color="#1FDBFA" stop-opacity="0.6"/>
<stop offset="1" stop-color="#876CF5" stop-opacity="0.36"/>
</linearGradient>
<linearGradient id="paint10_linear_6_229" x1="27.5168" y1="52.5664" x2="42.2772" y2="14.1333" gradientUnits="userSpaceOnUse">
<stop offset="0.166667" stop-color="#876CF5" stop-opacity="0"/>
<stop offset="0.520833" stop-color="#1FDBFA" stop-opacity="0.6"/>
<stop offset="1" stop-color="#876CF5" stop-opacity="0.36"/>
</linearGradient>
<linearGradient id="paint11_linear_6_229" x1="20.7102" y1="48.2613" x2="49.3116" y2="18.6584" gradientUnits="userSpaceOnUse">
<stop offset="0.166667" stop-color="#876CF5" stop-opacity="0"/>
<stop offset="0.520833" stop-color="#1FDBFA" stop-opacity="0.6"/>
<stop offset="1" stop-color="#876CF5" stop-opacity="0.36"/>
</linearGradient>
<linearGradient id="paint12_linear_6_229" x1="16.1332" y1="41.6395" x2="54.0198" y2="25.5657" gradientUnits="userSpaceOnUse">
<stop offset="0.166667" stop-color="#876CF5" stop-opacity="0"/>
<stop offset="0.520833" stop-color="#1FDBFA" stop-opacity="0.6"/>
<stop offset="1" stop-color="#876CF5" stop-opacity="0.36"/>
</linearGradient>
<linearGradient id="paint13_linear_6_229" x1="14.5036" y1="33.7528" x2="55.6558" y2="33.7528" gradientUnits="userSpaceOnUse">
<stop offset="0.166667" stop-color="#876CF5" stop-opacity="0"/>
<stop offset="0.520833" stop-color="#1FDBFA" stop-opacity="0.6"/>
<stop offset="1" stop-color="#876CF5" stop-opacity="0.36"/>
</linearGradient>
<linearGradient id="paint14_linear_6_229" x1="18.2743" y1="11.7742" x2="52.4517" y2="55.8064" gradientUnits="userSpaceOnUse">
<stop stop-color="#A73EE7"/>
<stop offset="1" stop-color="#00EBFF"/>
</linearGradient>
<linearGradient id="paint15_linear_6_229" x1="21.8673" y1="33.974" x2="46.0809" y2="33.974" gradientUnits="userSpaceOnUse">
<stop stop-color="#5433FF"/>
<stop offset="0.5" stop-color="#20BDFF"/>
<stop offset="1" stop-color="#A5FECB"/>
</linearGradient>
<linearGradient id="paint16_linear_6_229" x1="21.8673" y1="33.974" x2="46.0809" y2="33.974" gradientUnits="userSpaceOnUse">
<stop stop-color="#5433FF"/>
<stop offset="0.5" stop-color="#20BDFF"/>
<stop offset="1" stop-color="#A5FECB"/>
</linearGradient>
<linearGradient id="paint17_linear_6_229" x1="21.8672" y1="33.974" x2="46.0808" y2="33.974" gradientUnits="userSpaceOnUse">
<stop stop-color="#5433FF"/>
<stop offset="0.5" stop-color="#20BDFF"/>
<stop offset="1" stop-color="#A5FECB"/>
</linearGradient>
<linearGradient id="paint18_linear_6_229" x1="21.8672" y1="33.974" x2="46.0808" y2="33.974" gradientUnits="userSpaceOnUse">
<stop stop-color="#5433FF"/>
<stop offset="0.5" stop-color="#20BDFF"/>
<stop offset="1" stop-color="#A5FECB"/>
</linearGradient>
<linearGradient id="paint19_linear_6_229" x1="21.8672" y1="33.974" x2="46.0808" y2="33.974" gradientUnits="userSpaceOnUse">
<stop stop-color="#5433FF"/>
<stop offset="0.5" stop-color="#20BDFF"/>
<stop offset="1" stop-color="#A5FECB"/>
</linearGradient>
<linearGradient id="paint20_linear_6_229" x1="21.8673" y1="33.974" x2="46.0809" y2="33.974" gradientUnits="userSpaceOnUse">
<stop stop-color="#5433FF"/>
<stop offset="0.5" stop-color="#20BDFF"/>
<stop offset="1" stop-color="#A5FECB"/>
</linearGradient>
<linearGradient id="paint21_linear_6_229" x1="21.8672" y1="33.974" x2="46.0808" y2="33.974" gradientUnits="userSpaceOnUse">
<stop stop-color="#5433FF"/>
<stop offset="0.5" stop-color="#20BDFF"/>
<stop offset="1" stop-color="#A5FECB"/>
</linearGradient>
<linearGradient id="paint22_linear_6_229" x1="21.8672" y1="33.974" x2="46.0808" y2="33.974" gradientUnits="userSpaceOnUse">
<stop stop-color="#5433FF"/>
<stop offset="0.5" stop-color="#20BDFF"/>
<stop offset="1" stop-color="#A5FECB"/>
</linearGradient>
<linearGradient id="paint23_linear_6_229" x1="21.8672" y1="33.974" x2="46.0808" y2="33.974" gradientUnits="userSpaceOnUse">
<stop stop-color="#5433FF"/>
<stop offset="0.5" stop-color="#20BDFF"/>
<stop offset="1" stop-color="#A5FECB"/>
</linearGradient>
<linearGradient id="paint24_linear_6_229" x1="21.8673" y1="33.974" x2="46.0809" y2="33.974" gradientUnits="userSpaceOnUse">
<stop stop-color="#5433FF"/>
<stop offset="0.5" stop-color="#20BDFF"/>
<stop offset="1" stop-color="#A5FECB"/>
</linearGradient>
<linearGradient id="paint25_linear_6_229" x1="21.8672" y1="33.974" x2="46.0808" y2="33.974" gradientUnits="userSpaceOnUse">
<stop stop-color="#5433FF"/>
<stop offset="0.5" stop-color="#20BDFF"/>
<stop offset="1" stop-color="#A5FECB"/>
</linearGradient>
<linearGradient id="paint26_linear_6_229" x1="21.8672" y1="33.974" x2="46.0808" y2="33.974" gradientUnits="userSpaceOnUse">
<stop stop-color="#5433FF"/>
<stop offset="0.5" stop-color="#20BDFF"/>
<stop offset="1" stop-color="#A5FECB"/>
</linearGradient>
<linearGradient id="paint27_linear_6_229" x1="19.0798" y1="32.6434" x2="48.9919" y2="32.6434" gradientUnits="userSpaceOnUse">
<stop stop-color="#5433FF"/>
<stop offset="0.5" stop-color="#20BDFF"/>
<stop offset="1" stop-color="#A5FECB"/>
</linearGradient>
<clipPath id="clip0_6_229">
<rect width="68" height="68" fill="white"/>
</clipPath>
</defs>
</svg>
