<?xml version="1.0" encoding="UTF-8"?>
<svg id="a" data-name="Layer 1" xmlns="http://www.w3.org/2000/svg" xmlns:xlink="http://www.w3.org/1999/xlink" viewBox="0 0 68 68">
  <defs>
    <style>
      .c {
        fill: url(#b);
        stroke-width: 0px;
      }
    </style>
    <linearGradient id="b" data-name="New Gradient Swatch 1" x1="6.13" y1="34" x2="62.72" y2="34" gradientUnits="userSpaceOnUse">
      <stop offset="0" stop-color="#5433ff"/>
      <stop offset=".5" stop-color="#20bdff"/>
      <stop offset="1" stop-color="#a5fecb"/>
    </linearGradient>
  </defs>
  <path class="c" d="m20,67.54l-.26.46h29.37l-.26-.46,13.28-18.53h.59L34.42,0,6.13,49.01h.59l13.28,18.53Zm-12.09-18.53h22.78l-10.16,17.61-12.62-17.61Zm13.51,18.01l10.4-18.01h5.21l10.4,18.01h-26.01Zm3.19-38.17c0-5.25,4.27-9.52,9.52-9.52s9.52,4.27,9.52,9.52c0,.43-.03.85-.09,1.26-.96-.72-2.03-1.42-3.2-2.02-.37-3.11-3.02-5.53-6.23-5.53s-5.86,2.42-6.23,5.53c-1.17.59-2.25,1.29-3.2,2.02-.06-.41-.09-.83-.09-1.26Zm14.83,0c0,2.93-2.38,5.31-5.31,5.31s-5.31-2.38-5.31-5.31c0-.04,0-.07,0-.11,1.63-.77,3.42-1.28,5.3-1.28s3.67.52,5.3,1.28c0,.04,0,.07,0,.11Zm-5.31-2.36c-1.83,0-3.56.44-5.15,1.11.57-2.32,2.66-4.05,5.15-4.05s4.59,1.73,5.15,4.05c-1.59-.67-3.33-1.11-5.15-1.11Zm-6.26,2.74c.2,3.29,2.92,5.9,6.26,5.9s6.06-2.61,6.26-5.9c1.08.59,2.08,1.28,2.96,1.98-1.05,4.11-4.79,7.16-9.22,7.16s-8.17-3.05-9.22-7.16c.88-.7,1.88-1.38,2.96-1.98Zm6.26,10.11c4.73,0,8.74-3.15,10.04-7.46,1.54,1.32,2.64,2.56,3.1,3.11-1.2,1.43-6.68,7.53-13.15,7.53s-11.95-6.11-13.15-7.53c.46-.55,1.56-1.79,3.1-3.11,1.3,4.31,5.31,7.46,10.04,7.46Zm.29,5.16l2.04,3.54h-4.08l2.04-3.54Zm13.89,22.11l-10.16-17.61h22.78l-12.62,17.61ZM34.42,1.94l26.61,46.1h-23.45l-2.64-4.57c7.37-.52,13.09-7.86,13.34-8.18l.23-.3-.23-.3c-.12-.16-1.56-2-3.85-3.89.12-.63.19-1.29.19-1.95,0-5.79-4.71-10.49-10.49-10.49s-10.49,4.71-10.49,10.49c0,.67.07,1.32.19,1.95-2.3,1.9-3.73,3.74-3.85,3.89l-.23.3.23.3c.26.33,6.27,8.04,13.91,8.2l-2.62,4.54H7.81L34.42,1.94Z"/>
</svg>