<svg width="622" height="622" viewBox="0 0 622 622" fill="none" xmlns="http://www.w3.org/2000/svg">
<g clip-path="url(#clip0_6_229)">
<mask id="mask0_6_229" style="mask-type:luminance" maskUnits="userSpaceOnUse" x="0" y="0" width="622" height="622">
<path d="M622 0H0V622H622V0Z" fill="white"/>
</mask>
<g mask="url(#mask0_6_229)">
<path opacity="0.0714286" d="M564.234 194.391L541.101 497.927C539.806 514.904 527.066 528.793 510.268 531.537L231.21 577.13C215.847 579.64 200.566 572.229 193.02 558.611L39.1444 280.873C31.5993 267.255 33.4163 250.361 43.6851 238.657L230.208 26.0452C241.436 13.2466 259.96 9.79613 275.036 17.695L544.579 158.916C557.626 165.752 565.353 179.699 564.234 194.391Z" stroke="url(#paint0_linear_6_229)" stroke-width="0.424436"/>
<path opacity="0.142857" d="M589.021 299.959L449.184 570.323C441.362 585.446 424.205 593.252 407.667 589.21L132.996 522.089C117.874 518.394 106.701 505.601 105.074 490.118L71.8967 174.294C70.2702 158.812 78.5402 143.975 92.5646 137.214L347.285 14.4242C362.621 7.03079 381.025 11.0962 391.82 24.262L584.784 259.631C594.122 271.02 595.788 286.875 589.021 299.959Z" stroke="url(#paint1_linear_6_229)" stroke-width="0.424436"/>
<path opacity="0.214286" d="M570.669 406.859L336.362 601.065C323.256 611.928 304.417 612.406 290.772 602.221L64.1476 433.058C51.6708 423.745 46.3826 407.6 50.9323 392.712L143.731 89.0283C148.281 74.1397 161.689 63.7137 177.238 62.9732L459.665 49.5212C476.67 48.7113 492.021 59.6474 496.815 75.9856L582.52 368.078C586.669 382.214 582.009 397.461 570.669 406.859Z" stroke="url(#paint2_linear_6_229)" stroke-width="0.424436"/>
<path opacity="0.285714" d="M512.032 498.043L220.51 585.212C204.206 590.088 186.683 583.166 178.104 568.462L35.5529 324.143C27.7053 310.693 29.1445 293.762 39.1496 281.833L243.162 38.5795C253.167 26.65 269.582 22.2918 284.184 27.6885L549.425 125.718C565.389 131.619 575.244 147.681 573.276 164.592L538.096 466.965C536.394 481.604 526.145 493.823 512.032 498.043Z" stroke="url(#paint3_linear_6_229)" stroke-width="0.424436"/>
<path opacity="0.357143" d="M422.324 559.045L119.938 525.321C103.029 523.436 89.6074 510.221 87.4534 493.338L51.648 212.701C49.677 197.253 57.6172 182.229 71.4899 175.156L354.267 31.0022C368.141 23.9303 384.957 26.3343 396.289 37.0097L602.171 230.946C614.557 242.613 617.352 261.244 608.939 276.039L458.47 540.618C451.182 553.432 436.969 560.677 422.324 559.045Z" stroke="url(#paint4_linear_6_229)" stroke-width="0.424436"/>
<path opacity="0.428571" d="M315.997 580.123L50.8221 430.871C35.9947 422.526 28.8013 405.12 33.4109 388.741L110.053 116.407C114.272 101.417 127.451 90.6914 142.984 89.6046L459.571 67.4557C475.106 66.3689 489.648 75.1556 495.911 89.4125L609.689 348.423C616.533 364.002 611.83 382.24 598.308 392.569L356.476 577.291C344.76 586.24 328.843 587.353 315.997 580.123Z" stroke="url(#paint5_linear_6_229)" stroke-width="0.424436"/>
<path opacity="0.5" d="M209.807 557.991L23.9996 316.939C13.6096 303.46 13.7863 284.624 24.4273 271.347L201.33 50.6275C211.068 38.478 227.387 33.7561 242.11 38.8281L542.184 142.203C556.906 147.275 566.86 161.048 567.057 176.62L570.637 459.516C570.853 476.533 559.401 491.485 542.919 495.707L248.169 571.206C233.892 574.863 218.807 569.666 209.807 557.991Z" stroke="url(#paint6_linear_6_229)" stroke-width="0.424436"/>
<path opacity="0.571429" d="M120.841 496.136L43.9425 201.607C39.6419 185.135 47.1653 167.859 62.1505 159.795L311.178 25.7831C324.887 18.4058 341.751 20.4366 353.319 30.8581L589.179 243.333C600.747 253.754 604.528 270.32 598.627 284.732L491.448 546.528C484.998 562.281 468.611 571.573 451.789 569.016L150.98 523.287C136.415 521.072 124.565 510.397 120.841 496.136Z" stroke="url(#paint7_linear_6_229)" stroke-width="0.424436"/>
<path opacity="0.642857" d="M62.9825 404.394L107.223 103.212C109.697 86.3659 123.376 73.3997 140.326 71.8342L421.88 45.8291C437.38 44.3974 452.108 52.8557 458.685 66.9669L592.823 354.77C599.4 368.881 596.409 385.605 585.35 396.565L384.459 595.64C372.365 607.624 353.645 609.774 339.156 600.842L80.1144 441.153C67.5768 433.423 60.8413 418.972 62.9825 404.394Z" stroke="url(#paint8_linear_6_229)" stroke-width="0.424436"/>
<path opacity="0.714286" d="M45.6383 297.348L203.985 37.401C212.843 22.8603 230.502 16.2719 246.718 21.4577L516.04 107.584C530.868 112.326 541.122 125.868 541.664 141.426L552.742 458.796C553.285 474.355 544 488.579 529.539 494.344L266.878 599.057C251.063 605.362 232.987 600.022 223.138 586.135L47.0527 337.872C38.5317 325.859 37.9757 309.927 45.6383 297.348Z" stroke="url(#paint9_linear_6_229)" stroke-width="0.424436"/>
<path opacity="0.785714" d="M71.4827 192.012L318.76 14.6322C332.591 4.71051 351.416 5.54859 364.317 16.6603L578.596 201.228C590.393 211.389 594.543 227.864 588.966 242.4L475.221 538.865C469.644 553.401 455.542 562.865 439.979 562.519L157.3 556.227C140.281 555.848 125.73 543.868 122.088 527.236L56.9562 229.874C53.804 215.482 59.515 200.597 71.4827 192.012Z" stroke="url(#paint10_linear_6_229)" stroke-width="0.424436"/>
<path opacity="0.857143" d="M136.352 105.14L433.24 38.529C449.844 34.8036 466.84 42.93 474.373 58.196L599.544 311.871C606.434 325.836 603.817 342.626 593.005 353.828L372.531 582.249C361.719 593.451 345.039 596.653 330.849 590.251L73.0863 473.948C57.5743 466.948 48.8638 450.237 52.0055 433.506L108.181 134.325C110.902 119.84 121.978 108.365 136.352 105.14Z" stroke="url(#paint11_linear_6_229)" stroke-width="0.424436"/>
<path opacity="0.928571" d="M230.058 50.5548L529.354 105.299C546.09 108.361 558.558 122.478 559.529 139.469L575.681 421.925C576.57 437.472 567.602 451.906 553.269 457.993L261.131 582.059C246.799 588.147 230.191 584.575 219.63 573.135L27.7699 365.3C16.2287 352.798 14.7389 334.019 24.1639 319.847L192.713 66.4147C200.876 54.1398 215.561 47.9032 230.058 50.5548Z" stroke="url(#paint12_linear_6_229)" stroke-width="0.424436"/>
<path d="M337.602 36.9219L591.724 204.316C605.934 213.676 611.896 231.542 606.156 247.56L510.712 513.881C505.459 528.54 491.565 538.32 475.993 538.32H158.633C143.061 538.32 129.167 528.54 123.913 513.881L28.4697 247.56C22.7294 231.542 28.6916 213.676 42.901 204.316L297.024 36.9219C309.334 28.8129 325.291 28.8129 337.602 36.9219Z" stroke="url(#paint13_linear_6_229)" stroke-width="0.424436"/>
<path d="M473.513 161.722L359.022 95.6206C329.306 78.4643 292.694 78.4643 262.978 95.6206L148.487 161.722C118.771 178.879 100.465 210.585 100.465 244.899V377.101C100.465 411.415 118.771 443.121 148.487 460.278L262.978 526.379C292.694 543.536 329.306 543.536 359.022 526.379L473.513 460.278C503.229 443.121 521.535 411.415 521.535 377.101V244.899C521.535 210.585 503.229 178.879 473.513 161.722Z" fill="black" stroke="url(#paint14_linear_6_229)"/>
<g opacity="0.25">
<path d="M271.19 415.312C270.064 414.318 269.36 412.932 269.219 411.437L258.029 292.381H297.855V425.761C297.855 430.848 291.853 433.555 288.04 430.189L271.19 415.312Z" fill="black"/>
<path d="M297.855 290.018V273.399L255.903 269.774L257.806 290.018H297.855Z" fill="black"/>
<path d="M297.855 271.027L255.679 267.383L249.086 197.252C248.761 193.787 251.487 190.793 254.967 190.793H291.949C295.211 190.793 297.855 193.437 297.855 196.699V271.027Z" fill="black"/>
<path d="M375.698 290.018H406.057C407.688 290.018 409.011 288.696 409.011 287.065V269.649C409.011 267.905 407.507 266.54 405.771 266.71L377.579 269.462L375.698 290.018Z" fill="black"/>
<path d="M375.185 269.696L333.174 273.798V290.018H373.325L375.185 269.696Z" fill="black"/>
<path d="M330.813 274.029V290.018H218.949C217.317 290.018 215.995 288.696 215.995 287.065V269.61C215.995 267.88 217.476 266.52 219.2 266.667L318.618 275.17C318.797 275.186 318.978 275.185 319.156 275.167L330.813 274.029Z" fill="black"/>
<path d="M343.285 429.787C339.576 433.547 333.174 430.921 333.174 425.639V242.414H377.738L362.235 408.677C362.108 410.034 361.516 411.306 360.559 412.276L343.285 429.787Z" fill="black"/>
<path d="M377.958 240.052H333.174V214.587L380.608 211.628L377.958 240.052Z" fill="black"/>
<path d="M333.174 196.7V212.22L380.831 209.247L381.949 197.248C382.272 193.785 379.547 190.794 376.069 190.794H339.081C335.819 190.794 333.174 193.438 333.174 196.7Z" fill="black"/>
<path d="M297.856 240.052V214.661L250.48 212.33L253.073 240.052H297.856Z" fill="black"/>
<path d="M300.218 240.052H419.642C420.947 240.052 422.004 238.994 422.004 237.689V211.443C422.004 210.08 420.854 208.999 419.492 209.085L316.933 215.6L300.218 214.778V240.052Z" fill="black"/>
<path d="M247.902 212.203L250.732 240.052H202.884C201.578 240.052 200.521 238.994 200.521 237.689V212.353C200.521 211.003 201.651 209.927 202.999 209.993L247.902 212.203Z" fill="black"/>
</g>
<path d="M270.69 414.838C269.564 413.845 268.86 412.459 268.719 410.964L257.528 291.907H297.355V425.288C297.355 430.375 291.353 433.082 287.54 429.715L270.69 414.838Z" fill="url(#paint15_linear_6_229)"/>
<path d="M297.355 289.546V272.925L255.403 269.3L257.306 289.546H297.355Z" fill="url(#paint16_linear_6_229)"/>
<path d="M297.355 270.554L255.178 266.91L248.586 196.779C248.26 193.314 250.986 190.319 254.467 190.319H291.449C294.711 190.319 297.355 192.964 297.355 196.225V270.554Z" fill="url(#paint17_linear_6_229)"/>
<path d="M375.198 289.545H405.558C407.189 289.545 408.51 288.223 408.51 286.592V269.175C408.51 267.431 407.007 266.067 405.271 266.236L377.078 268.989L375.198 289.545Z" fill="url(#paint18_linear_6_229)"/>
<path d="M374.685 269.223L332.675 273.325V289.545H372.825L374.685 269.223Z" fill="url(#paint19_linear_6_229)"/>
<path d="M330.312 273.556V289.545H218.448C216.817 289.545 215.495 288.223 215.495 286.592V269.137C215.495 267.406 216.976 266.047 218.7 266.194L318.118 274.697C318.298 274.713 318.478 274.711 318.656 274.693L330.312 273.556Z" fill="url(#paint20_linear_6_229)"/>
<path d="M342.785 429.314C339.077 433.074 332.675 430.447 332.675 425.166V241.941H377.238L361.735 408.204C361.609 409.561 361.016 410.833 360.059 411.803L342.785 429.314Z" fill="url(#paint21_linear_6_229)"/>
<path d="M377.458 239.578H332.675V214.113L380.108 211.154L377.458 239.578Z" fill="url(#paint22_linear_6_229)"/>
<path d="M332.675 196.226V211.746L380.33 208.773L381.449 196.775C381.772 193.311 379.047 190.32 375.568 190.32H338.58C335.318 190.32 332.675 192.965 332.675 196.226Z" fill="url(#paint23_linear_6_229)"/>
<path d="M297.355 239.579V214.188L249.98 211.856L252.572 239.579H297.355Z" fill="url(#paint24_linear_6_229)"/>
<path d="M299.718 239.579H419.142C420.446 239.579 421.504 238.521 421.504 237.216V210.97C421.504 209.607 420.353 208.525 418.992 208.612L316.432 215.127L299.718 214.304V239.579Z" fill="url(#paint25_linear_6_229)"/>
<path d="M247.402 211.73L250.232 239.579H202.383C201.078 239.579 200.021 238.521 200.021 237.216V211.879C200.021 210.529 201.15 209.453 202.499 209.52L247.402 211.73Z" fill="url(#paint26_linear_6_229)"/>
<path d="M257.342 267.097L255.178 266.91L252.609 239.579H252.572L249.98 211.856L250.004 211.858L248.586 196.779C248.26 193.314 250.986 190.319 254.467 190.319H291.449C293.688 190.319 295.637 191.566 296.638 193.404C295.8 192.947 294.839 192.687 293.817 192.687H256.835C253.354 192.687 250.629 195.681 250.955 199.146L252.372 214.225L252.349 214.224L254.941 241.946H254.978L257.342 267.097Z" fill="white"/>
<path d="M299.724 239.579H302.086V216.672L318.801 217.494L421.36 210.981C421.409 210.977 421.456 210.975 421.504 210.975C421.504 209.612 420.353 208.525 418.992 208.612L382.719 210.917L382.698 211.142L335.043 214.114V213.944L316.433 215.127L299.724 214.305V239.579Z" fill="white"/>
<path d="M380.757 193.404C379.921 192.948 378.962 192.688 377.936 192.688H340.949C337.688 192.688 335.043 195.333 335.043 198.595V211.599L332.675 211.746V196.226C332.675 192.965 335.318 190.32 338.581 190.32H375.568C377.822 190.32 379.76 191.577 380.757 193.404Z" fill="white"/>
<path d="M332.675 241.946H377.237L377.017 244.309H335.043V427.534C335.043 428.585 335.296 429.529 335.732 430.341C333.969 429.379 332.675 427.541 332.675 425.166V291.913L332.68 275.924L332.675 241.946Z" fill="white"/>
<path d="M330.312 276.155V273.556L318.656 274.693C318.478 274.711 318.298 274.713 318.118 274.697L255.403 269.3L255.406 269.333L218.7 266.194C216.976 266.047 215.495 267.406 215.495 269.137V286.592C215.495 288.04 216.537 289.245 217.912 289.496C217.88 289.322 217.864 289.143 217.864 288.959V271.504C217.864 269.774 219.345 268.414 221.068 268.562L257.774 271.701L257.772 271.669L320.487 277.065C320.666 277.08 320.846 277.079 321.025 277.062L330.312 276.155Z" fill="white"/>
<path d="M257.528 291.913L268.719 410.964C268.86 412.459 269.564 413.845 270.69 414.838L272.033 416.025C271.507 415.224 271.178 414.3 271.088 413.332L259.896 294.276H297.355V291.913H257.528Z" fill="white"/>
<path d="M375.411 289.545H377.783L379.448 271.357L407.639 268.604C407.921 268.577 408.198 268.59 408.462 268.638C408.191 267.161 406.824 266.084 405.271 266.236L377.307 268.967L376.581 276.759L375.411 289.545Z" fill="white"/>
<path d="M247.632 213.992L247.402 211.73L202.499 209.52C201.15 209.453 200.021 210.529 200.021 211.879V237.216C200.021 238.521 201.078 239.579 202.383 239.579L202.389 214.247C202.389 212.897 203.519 211.821 204.868 211.888L247.632 213.992Z" fill="white"/>
</g>
<rect x="164.375" y="164.375" width="293.251" height="293.251" fill="black"/>
<path d="M241.59 460.753L240.319 462.966H382.339L381.067 460.753L445.283 371.179H448.154L311.329 134.217L174.525 371.179H177.396L241.612 460.753H241.59ZM183.16 371.179H293.313L244.176 456.304L183.16 371.179ZM248.45 458.276L298.727 371.179H323.887L374.164 458.276H248.428H248.45ZM263.901 273.738C263.901 248.359 284.547 227.713 309.926 227.713C335.306 227.713 355.951 248.359 355.951 273.738C355.951 275.798 355.798 277.836 355.535 279.853C350.91 276.346 345.694 272.971 340.04 270.1C338.22 255.087 325.421 243.384 309.926 243.384C294.431 243.384 281.61 255.065 279.813 270.1C274.158 272.949 268.942 276.346 264.318 279.853C264.055 277.858 263.901 275.82 263.901 273.738ZM335.569 273.738C335.569 287.874 324.062 299.402 309.904 299.402C295.746 299.402 284.24 287.896 284.24 273.738C284.24 273.563 284.262 273.387 284.262 273.212C292.152 269.508 300.809 267.01 309.882 267.01C318.956 267.01 327.613 269.508 335.503 273.212C335.503 273.387 335.525 273.563 335.525 273.738H335.569ZM309.904 262.319C301.072 262.319 292.7 264.445 285.007 267.689C287.746 256.468 297.85 248.096 309.904 248.096C321.958 248.096 332.084 256.468 334.801 267.689C327.109 264.445 318.715 262.319 309.904 262.319ZM279.637 275.579C280.58 291.469 293.774 304.114 309.904 304.114C326.035 304.114 339.207 291.469 340.171 275.601C345.409 278.472 350.231 281.803 354.504 285.157C349.42 305.035 331.361 319.785 309.904 319.785C288.448 319.785 270.388 305.035 265.304 285.157C269.578 281.781 274.399 278.472 279.637 275.601V275.579ZM309.904 324.475C332.785 324.475 352.159 309.243 358.449 288.4C365.901 294.778 371.227 300.783 373.44 303.457C367.654 310.361 341.135 339.882 309.882 339.882C278.629 339.882 252.11 310.361 246.324 303.457C248.56 300.805 253.863 294.778 261.315 288.4C267.605 309.243 287.001 324.475 309.882 324.475H309.904ZM311.307 349.416L321.169 366.511H301.422L311.285 349.416H311.307ZM378.459 456.325L329.322 371.201H439.475L378.459 456.325ZM311.329 143.619L440.001 366.467H326.627L313.871 344.397C349.486 341.877 377.166 306.416 378.372 304.86L379.468 303.435L378.372 302.01C377.78 301.243 370.854 292.367 359.743 283.184C360.312 280.116 360.641 276.96 360.641 273.738C360.641 245.772 337.892 223.023 309.926 223.023C281.96 223.023 259.211 245.772 259.211 273.738C259.211 276.96 259.518 280.116 260.11 283.184C249.02 292.345 242.072 301.243 241.48 302.01L240.385 303.435L241.48 304.86C242.708 306.46 271.791 343.718 308.721 344.507L296.031 366.467H182.656L311.329 143.619Z" fill="url(#paint27_linear_6_229)"/>
</g>
<defs>
<linearGradient id="paint0_linear_6_229" x1="227.259" y1="146.862" x2="409.891" y2="476.174" gradientUnits="userSpaceOnUse">
<stop offset="0.166667" stop-color="#876CF5" stop-opacity="0"/>
<stop offset="0.520833" stop-color="#1FDBFA" stop-opacity="0.6"/>
<stop offset="1" stop-color="#876CF5" stop-opacity="0.36"/>
</linearGradient>
<linearGradient id="paint1_linear_6_229" x1="297.394" y1="124.48" x2="336.779" y2="499.022" gradientUnits="userSpaceOnUse">
<stop offset="0.166667" stop-color="#876CF5" stop-opacity="0"/>
<stop offset="0.520833" stop-color="#1FDBFA" stop-opacity="0.6"/>
<stop offset="1" stop-color="#876CF5" stop-opacity="0.36"/>
</linearGradient>
<linearGradient id="paint2_linear_6_229" x1="370.757" y1="131.325" x2="260.602" y2="491.447" gradientUnits="userSpaceOnUse">
<stop offset="0.166667" stop-color="#876CF5" stop-opacity="0"/>
<stop offset="0.520833" stop-color="#1FDBFA" stop-opacity="0.6"/>
<stop offset="1" stop-color="#876CF5" stop-opacity="0.36"/>
</linearGradient>
<linearGradient id="paint3_linear_6_229" x1="435.627" y1="166.259" x2="193.526" y2="454.639" gradientUnits="userSpaceOnUse">
<stop offset="0.166667" stop-color="#876CF5" stop-opacity="0"/>
<stop offset="0.520833" stop-color="#1FDBFA" stop-opacity="0.6"/>
<stop offset="1" stop-color="#876CF5" stop-opacity="0.36"/>
</linearGradient>
<linearGradient id="paint4_linear_6_229" x1="481.577" y1="223.767" x2="146.115" y2="394.609" gradientUnits="userSpaceOnUse">
<stop offset="0.166667" stop-color="#876CF5" stop-opacity="0"/>
<stop offset="0.520833" stop-color="#1FDBFA" stop-opacity="0.6"/>
<stop offset="1" stop-color="#876CF5" stop-opacity="0.36"/>
</linearGradient>
<linearGradient id="paint5_linear_6_229" x1="501.483" y1="294.665" x2="125.977" y2="320.91" gradientUnits="userSpaceOnUse">
<stop offset="0.166667" stop-color="#876CF5" stop-opacity="0"/>
<stop offset="0.520833" stop-color="#1FDBFA" stop-opacity="0.6"/>
<stop offset="1" stop-color="#876CF5" stop-opacity="0.36"/>
</linearGradient>
<linearGradient id="paint6_linear_6_229" x1="492.028" y1="367.735" x2="136.077" y2="245.232" gradientUnits="userSpaceOnUse">
<stop offset="0.166667" stop-color="#876CF5" stop-opacity="0"/>
<stop offset="0.520833" stop-color="#1FDBFA" stop-opacity="0.6"/>
<stop offset="1" stop-color="#876CF5" stop-opacity="0.36"/>
</linearGradient>
<linearGradient id="paint7_linear_6_229" x1="454.925" y1="431.322" x2="175.066" y2="179.461" gradientUnits="userSpaceOnUse">
<stop offset="0.166667" stop-color="#876CF5" stop-opacity="0"/>
<stop offset="0.520833" stop-color="#1FDBFA" stop-opacity="0.6"/>
<stop offset="1" stop-color="#876CF5" stop-opacity="0.36"/>
</linearGradient>
<linearGradient id="paint8_linear_6_229" x1="395.823" y1="475.325" x2="236.61" y2="134.062" gradientUnits="userSpaceOnUse">
<stop offset="0.166667" stop-color="#876CF5" stop-opacity="0"/>
<stop offset="0.520833" stop-color="#1FDBFA" stop-opacity="0.6"/>
<stop offset="1" stop-color="#876CF5" stop-opacity="0.36"/>
</linearGradient>
<linearGradient id="paint9_linear_6_229" x1="324.321" y1="492.751" x2="311.171" y2="116.373" gradientUnits="userSpaceOnUse">
<stop offset="0.166667" stop-color="#876CF5" stop-opacity="0"/>
<stop offset="0.520833" stop-color="#1FDBFA" stop-opacity="0.6"/>
<stop offset="1" stop-color="#876CF5" stop-opacity="0.36"/>
</linearGradient>
<linearGradient id="paint10_linear_6_229" x1="251.697" y1="480.828" x2="386.711" y2="129.278" gradientUnits="userSpaceOnUse">
<stop offset="0.166667" stop-color="#876CF5" stop-opacity="0"/>
<stop offset="0.520833" stop-color="#1FDBFA" stop-opacity="0.6"/>
<stop offset="1" stop-color="#876CF5" stop-opacity="0.36"/>
</linearGradient>
<linearGradient id="paint11_linear_6_229" x1="189.437" y1="441.449" x2="451.055" y2="170.669" gradientUnits="userSpaceOnUse">
<stop offset="0.166667" stop-color="#876CF5" stop-opacity="0"/>
<stop offset="0.520833" stop-color="#1FDBFA" stop-opacity="0.6"/>
<stop offset="1" stop-color="#876CF5" stop-opacity="0.36"/>
</linearGradient>
<linearGradient id="paint12_linear_6_229" x1="147.57" y1="380.879" x2="494.121" y2="233.851" gradientUnits="userSpaceOnUse">
<stop offset="0.166667" stop-color="#876CF5" stop-opacity="0"/>
<stop offset="0.520833" stop-color="#1FDBFA" stop-opacity="0.6"/>
<stop offset="1" stop-color="#876CF5" stop-opacity="0.36"/>
</linearGradient>
<linearGradient id="paint13_linear_6_229" x1="132.664" y1="308.739" x2="509.086" y2="308.739" gradientUnits="userSpaceOnUse">
<stop offset="0.166667" stop-color="#876CF5" stop-opacity="0"/>
<stop offset="0.520833" stop-color="#1FDBFA" stop-opacity="0.6"/>
<stop offset="1" stop-color="#876CF5" stop-opacity="0.36"/>
</linearGradient>
<linearGradient id="paint14_linear_6_229" x1="167.155" y1="107.699" x2="479.778" y2="510.464" gradientUnits="userSpaceOnUse">
<stop stop-color="#A73EE7"/>
<stop offset="1" stop-color="#00EBFF"/>
</linearGradient>
<linearGradient id="paint15_linear_6_229" x1="200.021" y1="310.762" x2="421.504" y2="310.762" gradientUnits="userSpaceOnUse">
<stop stop-color="#5433FF"/>
<stop offset="0.5" stop-color="#20BDFF"/>
<stop offset="1" stop-color="#A5FECB"/>
</linearGradient>
<linearGradient id="paint16_linear_6_229" x1="200.021" y1="310.762" x2="421.504" y2="310.762" gradientUnits="userSpaceOnUse">
<stop stop-color="#5433FF"/>
<stop offset="0.5" stop-color="#20BDFF"/>
<stop offset="1" stop-color="#A5FECB"/>
</linearGradient>
<linearGradient id="paint17_linear_6_229" x1="200.021" y1="310.762" x2="421.504" y2="310.762" gradientUnits="userSpaceOnUse">
<stop stop-color="#5433FF"/>
<stop offset="0.5" stop-color="#20BDFF"/>
<stop offset="1" stop-color="#A5FECB"/>
</linearGradient>
<linearGradient id="paint18_linear_6_229" x1="200.02" y1="310.762" x2="421.504" y2="310.762" gradientUnits="userSpaceOnUse">
<stop stop-color="#5433FF"/>
<stop offset="0.5" stop-color="#20BDFF"/>
<stop offset="1" stop-color="#A5FECB"/>
</linearGradient>
<linearGradient id="paint19_linear_6_229" x1="200.021" y1="310.762" x2="421.504" y2="310.762" gradientUnits="userSpaceOnUse">
<stop stop-color="#5433FF"/>
<stop offset="0.5" stop-color="#20BDFF"/>
<stop offset="1" stop-color="#A5FECB"/>
</linearGradient>
<linearGradient id="paint20_linear_6_229" x1="200.021" y1="310.762" x2="421.504" y2="310.762" gradientUnits="userSpaceOnUse">
<stop stop-color="#5433FF"/>
<stop offset="0.5" stop-color="#20BDFF"/>
<stop offset="1" stop-color="#A5FECB"/>
</linearGradient>
<linearGradient id="paint21_linear_6_229" x1="200.021" y1="310.762" x2="421.504" y2="310.762" gradientUnits="userSpaceOnUse">
<stop stop-color="#5433FF"/>
<stop offset="0.5" stop-color="#20BDFF"/>
<stop offset="1" stop-color="#A5FECB"/>
</linearGradient>
<linearGradient id="paint22_linear_6_229" x1="200.021" y1="310.762" x2="421.504" y2="310.762" gradientUnits="userSpaceOnUse">
<stop stop-color="#5433FF"/>
<stop offset="0.5" stop-color="#20BDFF"/>
<stop offset="1" stop-color="#A5FECB"/>
</linearGradient>
<linearGradient id="paint23_linear_6_229" x1="200.021" y1="310.762" x2="421.504" y2="310.762" gradientUnits="userSpaceOnUse">
<stop stop-color="#5433FF"/>
<stop offset="0.5" stop-color="#20BDFF"/>
<stop offset="1" stop-color="#A5FECB"/>
</linearGradient>
<linearGradient id="paint24_linear_6_229" x1="200.021" y1="310.762" x2="421.504" y2="310.762" gradientUnits="userSpaceOnUse">
<stop stop-color="#5433FF"/>
<stop offset="0.5" stop-color="#20BDFF"/>
<stop offset="1" stop-color="#A5FECB"/>
</linearGradient>
<linearGradient id="paint25_linear_6_229" x1="200.021" y1="310.762" x2="421.504" y2="310.762" gradientUnits="userSpaceOnUse">
<stop stop-color="#5433FF"/>
<stop offset="0.5" stop-color="#20BDFF"/>
<stop offset="1" stop-color="#A5FECB"/>
</linearGradient>
<linearGradient id="paint26_linear_6_229" x1="200.021" y1="310.762" x2="421.504" y2="310.762" gradientUnits="userSpaceOnUse">
<stop stop-color="#5433FF"/>
<stop offset="0.5" stop-color="#20BDFF"/>
<stop offset="1" stop-color="#A5FECB"/>
</linearGradient>
<linearGradient id="paint27_linear_6_229" x1="174.525" y1="298.592" x2="448.132" y2="298.592" gradientUnits="userSpaceOnUse">
<stop stop-color="#5433FF"/>
<stop offset="0.5" stop-color="#20BDFF"/>
<stop offset="1" stop-color="#A5FECB"/>
</linearGradient>
<clipPath id="clip0_6_229">
<rect width="622" height="622" fill="white"/>
</clipPath>
</defs>
</svg>
