<?xml version="1.0" encoding="UTF-8"?>
<svg id="a" data-name="Layer 1" xmlns="http://www.w3.org/2000/svg" viewBox="0 0 68 74">
  <defs>
    <style>
      .b {
        fill: #fff;
        stroke-width: 0px;
      }
    </style>
  </defs>
  <path class="b" d="m18.78,73.76l-.29.5h31.97l-.29-.5,14.45-20.16h.64L34.47.26,3.68,53.6h.64l14.45,20.16Zm-13.15-20.16h24.79l-11.06,19.16-13.73-19.16Zm14.7,19.6l11.32-19.6h5.66l11.32,19.6h-28.3Zm3.48-41.54c0-5.71,4.65-10.36,10.36-10.36s10.36,4.65,10.36,10.36c0,.47-.03.92-.09,1.37-1.04-.79-2.21-1.55-3.49-2.19-.41-3.38-3.29-6.01-6.78-6.01s-6.37,2.63-6.78,6.01c-1.27.64-2.44,1.41-3.49,2.19-.06-.45-.09-.91-.09-1.37Zm16.13,0c0,3.18-2.59,5.77-5.77,5.77s-5.77-2.59-5.77-5.77c0-.04,0-.08,0-.12,1.77-.83,3.73-1.4,5.77-1.4s3.99.56,5.77,1.4c0,.04,0,.08,0,.12Zm-5.77-2.57c-1.99,0-3.87.48-5.61,1.21.61-2.53,2.89-4.41,5.61-4.41s4.99,1.88,5.61,4.41c-1.73-.73-3.62-1.21-5.61-1.21Zm-6.81,2.98c.21,3.58,3.18,6.42,6.81,6.42s6.6-2.84,6.81-6.42c1.18.65,2.26,1.39,3.23,2.15-1.14,4.48-5.21,7.79-10.04,7.79s-8.89-3.32-10.04-7.8c.96-.76,2.05-1.51,3.23-2.15Zm6.81,11.01c5.15,0,9.51-3.43,10.93-8.12,1.68,1.44,2.88,2.79,3.38,3.39-1.3,1.56-7.27,8.2-14.31,8.2s-13-6.64-14.31-8.2c.5-.6,1.7-1.95,3.38-3.39,1.42,4.69,5.78,8.12,10.93,8.12Zm.32,5.61l2.22,3.85h-4.44l2.22-3.85Zm15.12,24.06l-11.06-19.16h24.79l-13.73,19.16ZM34.47,2.37l28.96,50.16h-25.52l-2.87-4.97c8.02-.57,14.25-8.55,14.52-8.9l.25-.32-.25-.32c-.13-.17-1.69-2.17-4.19-4.24.13-.69.2-1.4.2-2.13,0-6.3-5.12-11.42-11.42-11.42s-11.42,5.12-11.42,11.42c0,.73.07,1.44.2,2.13-2.5,2.06-4.06,4.07-4.19,4.24l-.25.32.25.32c.28.36,6.82,8.74,15.13,8.93l-2.85,4.94H5.51L34.47,2.37Z"/>
</svg>