<?xml version="1.0" encoding="UTF-8"?>
<svg id="a" data-name="Layer 1" xmlns="http://www.w3.org/2000/svg" xmlns:xlink="http://www.w3.org/1999/xlink" viewBox="0 0 200 200">
  <defs>
    <style>
      .c {
        fill: url(#b);
        stroke-width: 0px;
      }
    </style>
    <linearGradient id="b" data-name="New Gradient Swatch 1" x1="16.92" y1="99.62" x2="183.37" y2="99.62" gradientUnits="userSpaceOnUse">
      <stop offset="0" stop-color="#5433ff"/>
      <stop offset=".5" stop-color="#20bdff"/>
      <stop offset="1" stop-color="#a5fecb"/>
    </linearGradient>
  </defs>
  <path class="c" d="m57.73,198.27l-.78,1.35h86.4l-.78-1.35,39.06-54.5h1.74L100.15-.38,16.92,143.78h1.74l39.07,54.5Zm-35.55-54.5h67.01l-29.89,51.78-37.12-51.78Zm39.72,52.98l30.59-52.98h15.31l30.59,52.98H61.9Zm9.39-112.27c0-15.44,12.56-28,28-28s28,12.56,28,28c0,1.26-.09,2.5-.25,3.71-2.82-2.13-5.98-4.19-9.42-5.93-1.1-9.14-8.89-16.25-18.32-16.25s-17.22,7.11-18.32,16.25c-3.44,1.74-6.61,3.8-9.42,5.93-.16-1.22-.25-2.45-.25-3.71Zm43.61,0c0,8.61-7,15.61-15.61,15.61s-15.61-7-15.61-15.61c0-.11.01-.21.02-.32,4.8-2.25,10.07-3.77,15.59-3.77s10.79,1.52,15.59,3.78c0,.11.02.21.02.31Zm-15.61-6.95c-5.37,0-10.47,1.29-15.15,3.27,1.66-6.83,7.81-11.92,15.15-11.92s13.49,5.09,15.15,11.92c-4.68-1.97-9.78-3.27-15.15-3.27Zm-18.41,8.06c.58,9.66,8.6,17.36,18.41,17.36s17.83-7.69,18.41-17.35c3.19,1.75,6.12,3.77,8.72,5.82-3.09,12.1-14.08,21.06-27.13,21.06s-24.04-8.97-27.13-21.07c2.6-2.05,5.53-4.07,8.72-5.82Zm18.41,29.75c13.92,0,25.71-9.26,29.54-21.94,4.54,3.88,7.77,7.54,9.13,9.16-3.52,4.2-19.66,22.16-38.67,22.16s-35.14-17.96-38.67-22.16c1.35-1.62,4.58-5.28,9.12-9.16,3.83,12.69,15.62,21.95,29.54,21.95Zm.85,15.17l6,10.4h-12.01l6-10.4Zm40.85,65.04l-29.9-51.78h67.01l-37.12,51.78ZM100.15,5.34l78.28,135.58h-68.97l-7.75-13.43c21.67-1.53,38.51-23.1,39.24-24.06l.67-.87-.67-.87c-.36-.47-4.58-5.87-11.33-11.45.35-1.86.54-3.78.54-5.75,0-17.01-13.84-30.86-30.86-30.86s-30.86,13.84-30.86,30.86c0,1.96.19,3.88.54,5.75-6.75,5.58-10.97,10.99-11.33,11.45l-.67.87.67.87c.75.98,18.44,23.63,40.9,24.13l-7.71,13.36H21.87L100.15,5.34Z"/>
</svg>