<?xml version="1.0" encoding="UTF-8"?>
<svg id="a" data-name="Layer 1" xmlns="http://www.w3.org/2000/svg" xmlns:xlink="http://www.w3.org/1999/xlink" viewBox="0 0 48 48">
  <defs>
    <style>
      .c {
        fill: url(#b);
        stroke-width: 0px;
      }
    </style>
    <linearGradient id="b" data-name="New Gradient Swatch 1" x1="3.86" y1="24" x2="43.81" y2="24" gradientUnits="userSpaceOnUse">
      <stop offset="0" stop-color="#5433ff"/>
      <stop offset=".5" stop-color="#20bdff"/>
      <stop offset="1" stop-color="#a5fecb"/>
    </linearGradient>
  </defs>
  <path class="c" d="m13.65,47.68l-.19.32h20.73l-.19-.32,9.38-13.08h.42L23.83,0,3.86,34.6h.42l9.38,13.08Zm-8.53-13.08h16.08l-7.17,12.43-8.91-12.43Zm9.53,12.72l7.34-12.72h3.67l7.34,12.72H14.65Zm2.25-26.95c0-3.71,3.01-6.72,6.72-6.72s6.72,3.01,6.72,6.72c0,.3-.02.6-.06.89-.68-.51-1.44-1.01-2.26-1.42-.26-2.19-2.13-3.9-4.4-3.9s-4.13,1.71-4.4,3.9c-.83.42-1.59.91-2.26,1.42-.04-.29-.06-.59-.06-.89Zm10.47,0c0,2.07-1.68,3.75-3.75,3.75s-3.75-1.68-3.75-3.75c0-.03,0-.05,0-.08,1.15-.54,2.42-.91,3.74-.91s2.59.37,3.74.91c0,.03,0,.05,0,.08Zm-3.75-1.67c-1.29,0-2.51.31-3.64.78.4-1.64,1.88-2.86,3.64-2.86s3.24,1.22,3.64,2.86c-1.12-.47-2.35-.78-3.64-.78Zm-4.42,1.93c.14,2.32,2.06,4.17,4.42,4.17s4.28-1.85,4.42-4.16c.76.42,1.47.9,2.09,1.4-.74,2.9-3.38,5.06-6.51,5.06s-5.77-2.15-6.51-5.06c.62-.49,1.33-.98,2.09-1.4Zm4.42,7.14c3.34,0,6.17-2.22,7.09-5.27,1.09.93,1.86,1.81,2.19,2.2-.84,1.01-4.72,5.32-9.28,5.32s-8.43-4.31-9.28-5.32c.32-.39,1.1-1.27,2.19-2.2.92,3.04,3.75,5.27,7.09,5.27Zm.2,3.64l1.44,2.5h-2.88l1.44-2.5Zm9.8,15.61l-7.17-12.43h16.08l-8.91,12.43ZM23.83,1.37l18.79,32.54h-16.55l-1.86-3.22c5.2-.37,9.24-5.55,9.42-5.77l.16-.21-.16-.21c-.09-.11-1.1-1.41-2.72-2.75.08-.45.13-.91.13-1.38,0-4.08-3.32-7.41-7.41-7.41s-7.41,3.32-7.41,7.41c0,.47.05.93.13,1.38-1.62,1.34-2.63,2.64-2.72,2.75l-.16.21.16.21c.18.23,4.43,5.67,9.82,5.79l-1.85,3.21H5.05L23.83,1.37Z"/>
</svg>